<?xml version="1.0" encoding="UTF-8"?>
<svg id="Capa_1" data-name="Capa 1" xmlns="http://www.w3.org/2000/svg" viewBox="0 0 800 688.54">
  <defs>
    <style>
      .cls-1 {
        fill: #010002;
        stroke-width: 0px;
      }
    </style>
  </defs>
  <path class="cls-1" d="M779.95,374.23c-22.26-16.89-54.08-12.68-71.11,9.68-1.61,2.27-2.93,4.64-4.25,6.96l-124.5-21.09c1.17-8.63,1.95-17.33,1.95-26.27,0-36.19-10.07-69.96-27.32-99.04l79.37-51.34c5.06,3.42,11.24,5.28,17.79,4.67,15.1-1.39,26.2-14.64,24.88-29.84-1.37-15.1-14.74-26.17-29.84-24.83s-26.17,14.74-24.85,29.84c.12,1.52.51,2.86.81,4.35l-78.86,50.9c-15.74-21.26-35.53-39.2-58.48-52.56l56.64-89.49c6.04.98,12.44.07,18.13-3.23,13.1-7.62,17.64-24.34,9.99-37.44-7.6-13.17-24.36-17.72-37.49-10.09-13.1,7.6-17.62,24.36-10.02,37.53.73,1.3,1.56,2.42,2.54,3.57l-57.06,90.1c-19.3-8.82-40.2-14.76-62.24-16.84l11.58-68.42c4.45-1.08,8.55-3.3,11.49-7.11,6.7-8.89,5.06-21.53-3.81-28.22-8.87-6.79-21.53-5.06-28.27,3.79-6.7,8.85-5.01,21.53,3.81,28.25.86.56,1.86.78,2.74,1.34l-11.83,69.72c-1.49-.05-2.91-.22-4.37-.22-25.27,0-49.34,4.94-71.4,13.73l-54.62-100.34c5.3-6.72,8.55-15.13,8.41-24.36C269.42,16.6,251.95-.43,230.62,0c-21.26.34-38.22,17.81-37.9,39.12.32,21.26,17.81,38.17,39.12,37.88,2.13-.05,4.15-.42,6.18-.73l53.37,98.04c-26.68,15.08-49.46,36.36-66.34,61.82l-79.74-62.56c1.59-5.84,1.3-12.29-1.34-18.3-6.23-13.81-22.43-19.99-36.26-13.76-13.88,6.21-20.04,22.46-13.83,36.31,6.28,13.78,22.51,19.94,36.34,13.73,1.34-.64,2.57-1.47,3.79-2.25l81.03,63.71c-11.97,22.9-19.55,48.43-21.6,75.66l-119.62-.22c-3.35-7.87-9.19-14.78-17.33-19.04-18.84-9.95-42.2-2.76-52.05,16.1-9.9,18.84-2.66,42.15,16.1,52.03,18.84,9.97,42.18,2.69,52.1-16.15,1-1.83,1.64-3.74,2.32-5.72l118.39.29c.98,15.42,3.57,30.47,7.94,44.79l-76.51,29.47c-4.23-4.37-9.95-7.4-16.49-8.19-15.05-1.71-28.62,9.09-30.35,24.09-1.73,15.05,9.04,28.79,24.14,30.45,15.03,1.69,28.62-9.14,30.33-24.17.15-1.49.12-2.86.1-4.45l75.36-29.03c14.93,35.41,40.1,65.56,71.77,86.55l-36.95,38.15c-5.69-2.17-12.14-2.59-18.38-.54-14.47,4.81-22.21,20.31-17.5,34.63,4.72,14.42,20.28,22.31,34.65,17.64,14.42-4.84,22.19-20.36,17.52-34.8-.51-1.42-1.1-2.69-1.76-4.08l39.56-40.81c18.84,9.95,39.51,16.79,61.38,20.01l-10.53,98.75c-5.96,1.37-11.56,4.69-15.61,9.8-9.29,12-7.14,29.15,4.89,38.54,12.02,9.31,29.25,7.06,38.56-4.91,9.26-12.02,7.04-29.2-4.96-38.56-1.17-.81-2.42-1.52-3.64-2.27l10.58-99.41c3.32.22,6.6.51,9.97.51,25.29,0,49.39-4.96,71.6-13.73l19.65,87.48c-4.91,3.57-8.8,8.65-10.53,15.03-3.91,14.66,4.72,29.69,19.4,33.62,14.64,3.84,29.71-4.72,33.62-19.43,3.91-14.69-4.79-29.69-19.45-33.62-1.44-.39-2.86-.54-4.35-.71l-20.33-90.56c14.15-7.36,27.15-16.4,39.02-26.95l26.93,37.93c-2.42,3.81-3.67,8.26-3.05,13.12,1.49,10.95,11.66,18.72,22.7,17.3,11.07-1.54,18.77-11.71,17.3-22.73-1.52-11.07-11.71-18.77-22.75-17.28-1.03.15-1.83.68-2.81.98l-27.78-39.15c20.48-20.87,36.14-46.33,45.55-74.82l128.07,21.77c2.64,11.02,8.7,21.24,18.35,28.54,22.31,16.93,54.15,12.71,71.13-9.65,16.91-22.26,12.56-54.08-9.75-71.06ZM326.9,334.49c-16.01,0-29.08-13.05-29.08-29.18s13.07-29.03,29.08-29.03,29.13,12.95,29.13,29.03c0,16.1-13.02,29.18-29.13,29.18ZM401.94,397.74c-11.78,0-21.36-9.58-21.36-21.33s9.58-21.38,21.36-21.38,21.38,9.48,21.38,21.38c-.02,11.83-9.58,21.33-21.38,21.33ZM481.26,307.25c-17.4,0-31.5-14.1-31.5-31.45s14.1-31.6,31.5-31.6,31.52,14.12,31.52,31.6c0,17.35-14.1,31.45-31.52,31.45Z"/>
</svg>